<svg id="Layer_1" enable-background="new 0 0 128 128" height="512" viewBox="0 0 128 128" width="512" xmlns="http://www.w3.org/2000/svg"><path d="m124.23 38.935c-.333-2.13-2.208-3.736-4.362-3.736h-1.259v-6.562c0-2.112-1.719-3.831-3.832-3.831h-22.048c-2.113 0-3.832 1.719-3.832 3.831v6.562h-4.971c.381-.547.608-1.209.608-1.925 0-1.863-1.517-3.38-3.38-3.38h-.878v-1.727c0-.461-.024-.943-.072-1.434v-.001c-.723-7.309-6.904-13.039-14.4-13.039h-6.436c-7.496 0-13.677 5.729-14.4 13.038v.002c-.048.49-.072.973-.072 1.434v1.727h-.878c-1.864 0-3.38 1.517-3.38 3.38 0 .716.227 1.378.608 1.925h-25.945c-2.438 0-4.421 1.983-4.421 4.421v10.228c-1.808.384-3.169 1.99-3.169 3.909v13.977c0 1.921 1.361 3.527 3.169 3.911v27.193 5.763c0 2.438 1.983 4.421 4.421 4.421h39.279c-.128 1.433-.605 2.794-1.43 4.064h-2.526c-1.44 0-2.611 1.171-2.611 2.61s1.171 2.611 2.611 2.611h33.926c1.439 0 2.611-1.172 2.611-2.611s-1.172-2.61-2.611-2.61h-2.586c-.785-1.192-1.301-2.614-1.483-4.064h39.386c2.438 0 4.422-1.983 4.422-4.421v-5.763-59.219c0-.235-.024-.469-.059-.684z" fill="#e6e7e8"/><path d="m115.867 32.198c1.696 0 3.118 1.251 3.374 2.891.028.171.047.351.047.531v59.216h-111.409v-59.216c0-1.886 1.535-3.421 3.421-3.421h104.567z" fill="#d4fbff"/><path d="m14.301 32.198h-3c-1.886 0-3.421 1.535-3.421 3.421v59.216h3v-59.215c-.001-1.886 1.535-3.422 3.421-3.422z" fill="#fff"/><path d="m119.289 94.836v5.763c0 1.877-1.545 3.421-3.421 3.421h-104.567c-1.886 0-3.421-1.545-3.421-3.421v-5.763z" fill="#0089ef"/><path d="m67.848 100.802h-8.528c-.739 0-1.344-.605-1.344-1.344 0-.739.605-1.344 1.344-1.344h8.528c.739 0 1.344.605 1.344 1.344 0 .739-.605 1.344-1.344 1.344z" fill="#6dc9f7"/><path d="m49.705 110.084h27.731c-1.27-1.706-2.001-3.893-2.032-6.064h-23.764l.001.136c.018 2.193-.681 4.185-1.936 5.928z" fill="#0089ef"/><path d="m80.55 113.306h-33.926c-.89 0-1.611-.721-1.611-1.611 0-.89.721-1.611 1.611-1.611h33.926c.89 0 1.611.721 1.611 1.611 0 .89-.721 1.611-1.611 1.611z" fill="#0089ef"/><path d="m79.592 81.784c-2.595 0-4.699-2.104-4.699-4.699v-15.613c0-.804.221-1.55.577-2.212-3.02-2.562-6.824-4.222-11.005-4.567v.006c-.343 2.941-2.844 5.221-5.881 5.221s-5.536-2.279-5.881-5.218c-10.03.825-17.917 9.211-17.917 19.454v14.695h47.596v-7.067z" fill="#ffd7e5"/><path d="m74.578 36.516c-.316 0-.616.093-.888.259v3.146c0 .861-.076 1.705-.214 2.527.327.262.7.424 1.103.424 1.243 0 2.251-1.423 2.251-3.178s-1.009-3.178-2.252-3.178z" fill="#fff"/><path d="m43.482 39.922v-3.146c-.273-.166-.573-.259-.888-.259-1.243 0-2.251 1.423-2.251 3.178s1.008 3.178 2.251 3.178c.403 0 .776-.162 1.103-.424-.139-.823-.215-1.666-.215-2.527z" fill="#fff"/><path d="m64.465 54.694v.006c-.343 2.941-2.844 5.221-5.881 5.221s-5.536-2.279-5.881-5.218c-.452.037-.896.098-1.339.166v33.984h14.448v-33.991c-.445-.068-.892-.131-1.347-.168z" fill="#6dc9f7"/><path d="m58.589 55.025c-2.088 0-4.077-.424-5.886-1.19v.864c.343 2.941 2.844 5.221 5.881 5.221s5.538-2.28 5.881-5.221c0-.107 0-.47 0-.86-1.806.764-3.792 1.186-5.876 1.186z" fill="#fff"/><path d="m43.525 31.654c-.014.265-.04.527-.04.796v7.472c0 8.342 6.762 15.104 15.104 15.104s15.104-6.762 15.104-15.104v-7.472c0-.269-.026-.531-.04-.796z" fill="#fff"/><path d="m41.962 22.831c-.043.44-.067.885-.067 1.336v2.727h33.382v-2.727c0-.451-.024-.896-.067-1.336z" fill="#6dc9f7"/><path d="m41.962 22.831c-.043.44-.067.885-.067 1.336v2.727h33.382v-2.727c0-.451-.024-.896-.067-1.336z" fill="#6dc9f7"/><path d="m31.059 66.732c1.656 0 2.999-1.343 2.999-2.999v-13.977c0-1.655-1.342-2.998-2.999-2.998h-23.349c-1.656 0-2.999 1.343-2.999 2.998v13.977c0 1.657 1.343 2.999 2.999 2.999h14.785l6.887 6.107v-6.107z" fill="#0089ef"/><circle cx="19.384" cy="56.631" fill="#fff" r="2.125"/><circle cx="27.897" cy="56.631" fill="#fff" r="2.125"/><circle cx="10.871" cy="56.631" fill="#fff" r="2.125"/><path d="m105.635 56.774h-26.043c-2.595 0-4.699 2.104-4.699 4.699v15.613c0 2.595 2.104 4.699 4.699 4.699h26.044c2.595 0 4.699-2.104 4.699-4.699v-15.614c-.001-2.595-2.105-4.698-4.7-4.698z" fill="#fa759e"/><path d="m87.274 75.067v-11.576c0-1.431 1.655-2.229 2.774-1.336l7.261 5.788c.858.684.858 1.988 0 2.673l-7.261 5.788c-1.119.892-2.774.095-2.774-1.337z" fill="#fff"/><path d="m88.729 40.667c-1.564 0-2.832-1.268-2.832-2.832v-13.198c0-1.563 1.268-2.831 2.832-2.831h22.048c1.564 0 2.832 1.268 2.832 2.831v13.198c0 1.564-1.268 2.832-2.832 2.832h-13.96l-6.503 5.767v-5.767z" fill="#ffd7e5"/><path d="m120.229 34.934c-.333-2.13-2.208-3.736-4.362-3.736h-1.259v-6.562c0-2.112-1.719-3.831-3.832-3.831h-22.048c-2.112 0-3.831 1.719-3.831 3.831v6.562h-4.97c.381-.547.607-1.208.607-1.924 0-1.863-1.517-3.38-3.38-3.38h-.879v-1.728c0-.473-.024-.955-.072-1.436 0-.001 0-.001-.001-.002-.724-7.308-6.905-13.035-14.4-13.035h-6.436c-7.98 0-14.473 6.492-14.473 14.473v1.728h-.878c-1.864 0-3.38 1.517-3.38 3.38 0 .715.227 1.377.607 1.924h-3.487c-.552 0-1 .447-1 1s.448 1 1 1h7.47v2.704c-1.119.653-1.883 2.083-1.883 3.792 0 2.343 1.428 4.178 3.25 4.178.131 0 .259-.034.388-.054 1.085 4.343 3.926 7.993 7.736 10.138-9.608 1.71-16.931 10.108-16.931 20.2v13.741h-16.742c-.552 0-1 .447-1 1s.448 1 1 1h93.088c.553 0 1-.447 1-1s-.447-1-1-1h-26.749v-5.112h22.254c3.142 0 5.698-2.557 5.698-5.699v-15.614c0-3.142-2.557-5.698-5.698-5.698h-26.044c-1.748 0-3.313.793-4.36 2.037-2.53-1.923-5.51-3.279-8.759-3.863 3.801-2.145 6.636-5.788 7.721-10.124.128.022.255.047.384.047 1.822 0 3.25-1.835 3.25-4.178 0-1.709-.764-3.139-1.883-3.792v-2.704h8.953v4.637c0 2.113 1.719 3.832 3.831 3.832h.585v4.767c0 .394.23.751.59.912.132.059.271.088.41.088.24 0 .477-.086.663-.252l6.22-5.515h13.58c2.113 0 3.832-1.719 3.832-3.832v-4.637h1.259c1.179 0 2.204.879 2.388 2.054.02.119.034.243.034.368v58.216h-109.411v-26.103h13.235l6.603 5.855c.187.166.424.252.664.252.139 0 .279-.029.41-.088.359-.161.59-.519.59-.912v-5.107h.678c2.205 0 3.999-1.794 3.999-3.999v-13.976c0-2.205-1.794-3.999-3.999-3.999h-22.18v-10.138c0-1.335 1.086-2.422 2.421-2.422h9.253c.552 0 1-.447 1-1s-.448-1-1-1h-9.253c-2.438 0-4.421 1.983-4.421 4.422v10.227c-1.807.384-3.168 1.99-3.168 3.91v13.977c0 1.92 1.361 3.526 3.168 3.91v27.193 5.763c0 2.438 1.983 4.421 4.422 4.421h39.279c-.128 1.433-.605 2.795-1.43 4.064h-2.526c-1.439 0-2.611 1.172-2.611 2.611s1.171 2.611 2.611 2.611h33.927c1.439 0 2.61-1.172 2.61-2.611s-1.171-2.611-2.61-2.611h-2.586c-.785-1.191-1.302-2.614-1.483-4.064h39.385c2.438 0 4.422-1.983 4.422-4.421v-5.763-59.217c0-.236-.024-.472-.06-.686zm-77.335-10.767c0-.113.014-.223.017-.336h31.348c.003.113.017.223.017.336v1.728h-31.382zm-.292 17.705c-.593-.023-1.259-.925-1.259-2.178 0-1.169.58-2.061 1.139-2.167h.002v2.393c0 .659.052 1.306.129 1.945-.001.002-.011.005-.011.007zm4.818 45.979v-17.973c0-3.954-2.119-7.544-5.487-9.481 2.347-2.11 5.24-3.614 8.432-4.312v31.766zm4.945 0v-30.818c1.13 2.318 3.505 3.888 6.219 3.888 2.722 0 5.102-1.579 6.229-3.907v30.837zm6.219-28.93c-2.243 0-4.153-1.51-4.73-3.608 1.498.462 3.088.713 4.735.713 1.644 0 3.23-.25 4.725-.71-.578 2.096-2.487 3.605-4.73 3.605zm-22.797 15.235c0-4.705 1.775-8.993 4.676-12.261 3.021 1.509 4.958 4.572 4.958 7.982v17.974h-9.634zm45.595 13.695h-9.631v-17.973c0-2.173.794-4.202 2.143-5.786v12.994c0 3.143 2.557 5.699 5.698 5.699h1.79zm-1.79-30.077h26.044c2.039 0 3.698 1.659 3.698 3.698v15.613c0 2.04-1.659 3.699-3.698 3.699h-26.044c-2.039 0-3.698-1.659-3.698-3.699v-15.613c-.001-2.039 1.659-3.698 3.698-3.698zm-5.69 3.526c-2.583 2.043-4.151 5.175-4.151 8.577v17.974h-2.938v-31.775c2.749.605 5.268 1.817 7.414 3.496-.194.544-.307 1.124-.325 1.728zm-15.313-7.275c-7.777 0-14.104-6.327-14.104-14.104v-7.267h28.208v7.267c-.001 7.777-6.328 14.104-14.104 14.104zm15.989-12.153c-.003 0-.006 0-.01 0 0 0-.005-.001-.006-.002.078-.64.13-1.288.13-1.949v-2.393c.558.109 1.136.999 1.136 2.166 0 1.246-.66 2.178-1.25 2.178zm38.03-4.037c0 1.01-.822 1.832-1.832 1.832h-13.96c-.244 0-.48.09-.663.252l-4.84 4.291v-3.543c0-.553-.447-1-1-1h-1.585c-1.01 0-1.831-.822-1.831-1.832v-13.198c0-1.01.821-1.831 1.831-1.831h22.048c1.01 0 1.832.821 1.832 1.831zm-106.897 25.898v-13.976c0-1.103.896-1.999 1.999-1.999h23.35c1.102 0 1.999.896 1.999 1.999v13.977c0 1.103-.897 1.999-1.999 1.999h-1.678c-.552 0-1 .447-1 1v3.884l-5.223-4.632c-.183-.162-.419-.252-.664-.252h-14.786c-1.102-.001-1.998-.897-1.998-2zm75.45 47.962c0 .337-.273.611-.61.611h-33.928c-.337 0-.611-.274-.611-.611s.274-.611.611-.611h3.082 27.731 3.114c.338 0 .611.274.611.611zm-5.515-2.611h-24.162c.651-1.286 1.029-2.646 1.13-4.064h21.847c.142 1.42.548 2.806 1.185 4.064zm42.643-8.486c0 1.335-1.087 2.421-2.422 2.421h-104.566c-1.335 0-2.422-1.086-2.422-2.421v-4.763h109.41z" fill="#3a2c60"/><path d="m25.011 92.596h-2.308c-.552 0-1-.448-1-1v-5.489c0-.552.448-1 1-1h2.308c.552 0 1 .448 1 1v5.489c0 .552-.448 1-1 1z" fill="#fa759e"/><g fill="#3a2c60"><path d="m24.554 33.198h5.203c.552 0 1-.447 1-1s-.448-1-1-1h-5.203c-.552 0-1 .447-1 1s.448 1 1 1z"/><path d="m51.922 36.297c-.834 0-1.51.676-1.51 1.51s.676 1.51 1.51 1.51 1.51-.676 1.51-1.51-.675-1.51-1.51-1.51z"/><path d="m65.249 36.297c-.834 0-1.51.676-1.51 1.51s.676 1.51 1.51 1.51 1.51-.676 1.51-1.51-.676-1.51-1.51-1.51z"/><path d="m58.586 45.53c1.499 0 2.717-1.219 2.717-2.718v-1.007c0-.553-.448-1-1-1s-1 .447-1 1v1.007c0 .396-.322.718-.717.718-.396 0-.718-.322-.718-.718v-1.007c0-.553-.448-1-1-1s-1 .447-1 1v1.007c0 1.499 1.219 2.718 2.718 2.718z"/><path d="m67.344 33.754-2.958-.515c-.545-.092-1.062.271-1.157.813-.095.545.27 1.062.814 1.157l2.957.515c.059.01.116.015.173.015.478 0 .899-.343.984-.828.095-.545-.269-1.063-.813-1.157z"/><path d="m52.786 33.239-2.958.515c-.544.095-.909.612-.814 1.157.085.485.507.828.984.828.057 0 .114-.005.172-.015l2.958-.515c.544-.095.909-.612.814-1.157-.094-.542-.609-.903-1.156-.813z"/><path d="m61.135 46.328c-.008.012-.916 1.149-2.549 1.149-1.648 0-2.494-1.076-2.541-1.139-.325-.44-.944-.539-1.391-.218-.448.323-.549.948-.226 1.396.058.08 1.446 1.961 4.158 1.961 2.642 0 4.083-1.863 4.144-1.942.333-.44.247-1.067-.193-1.4-.443-.334-1.07-.248-1.402.193z"/></g><path d="m105.534 26.758c-1.417-1.417-3.714-1.417-5.13 0l-.651.651-.651-.651c-1.417-1.417-3.714-1.417-5.13 0-1.417 1.417-1.417 3.714 0 5.13l.651.651 4.401 4.401c.403.403 1.056.403 1.459 0l4.401-4.401.651-.651c1.416-1.416 1.416-3.713-.001-5.13z" fill="#fa759e"/></svg>